<svg width="266" height="267" viewBox="0 0 266 267" fill="none" xmlns="http://www.w3.org/2000/svg">
<path fill-rule="evenodd" clip-rule="evenodd" d="M133.39 266.75C120.541 266.75 110.125 256.335 110.125 243.477C110.125 230.618 120.541 220.204 133.39 220.204C146.232 220.204 156.648 230.618 156.648 243.477C156.648 256.335 146.232 266.75 133.39 266.75Z" fill="#212121"/>
<path fill-rule="evenodd" clip-rule="evenodd" d="M82.7069 235.359C71.0285 235.359 61.5677 225.884 61.5677 214.197C61.5677 202.511 71.0285 193.036 82.7069 193.036C94.3854 193.036 103.854 202.511 103.854 214.197C103.854 225.884 94.3854 235.359 82.7069 235.359Z" fill="#414141"/>
<path fill-rule="evenodd" clip-rule="evenodd" d="M32.0294 203.96C21.5221 203.96 13 195.432 13 184.917C13 174.403 21.5221 165.875 32.0294 165.875C42.5367 165.875 51.0588 174.403 51.0588 184.917C51.0588 195.432 42.5367 203.96 32.0294 203.96Z" fill="#606060"/>
<path fill-rule="evenodd" clip-rule="evenodd" d="M152.419 184.917C152.419 195.432 143.897 203.96 133.39 203.96C122.882 203.96 114.36 195.432 114.36 184.917C114.36 174.403 122.882 165.875 133.39 165.875C143.897 165.875 152.419 174.403 152.419 184.917Z" fill="#414141"/>
<path fill-rule="evenodd" clip-rule="evenodd" d="M233.971 203.96C223.463 203.96 214.941 195.432 214.941 184.917C214.941 174.403 223.463 165.875 233.971 165.875C244.478 165.875 253 174.403 253 184.917C253 195.432 244.478 203.96 233.971 203.96Z" fill="#606060"/>
<path fill-rule="evenodd" clip-rule="evenodd" d="M184.064 235.359C172.386 235.359 162.925 225.884 162.925 214.197C162.925 202.511 172.386 193.036 184.064 193.036C195.743 193.036 205.212 202.511 205.212 214.197C205.212 225.884 195.743 235.359 184.064 235.359Z" fill="#414141"/>
<path fill-rule="evenodd" clip-rule="evenodd" d="M200.984 155.637C200.984 164.988 193.409 172.568 184.065 172.568C174.729 172.568 167.153 164.988 167.153 155.637C167.153 146.286 174.729 138.706 184.065 138.706C193.409 138.706 200.984 146.286 200.984 155.637Z" fill="#606060"/>
<path fill-rule="evenodd" clip-rule="evenodd" d="M99.625 155.637C99.625 164.988 92.0497 172.568 82.7053 172.568C73.3692 172.568 65.7939 164.988 65.7939 155.637C65.7939 146.286 73.3692 138.706 82.7053 138.706C92.0497 138.706 99.625 146.286 99.625 155.637Z" fill="#606060"/>
<path fill-rule="evenodd" clip-rule="evenodd" d="M95.3955 97.0769C95.3955 104.092 89.7141 109.769 82.712 109.769C75.7016 109.769 70.0201 104.092 70.0201 97.0769C70.0201 90.0618 75.7016 84.3848 82.712 84.3848C89.7141 84.3848 95.3955 90.0618 95.3955 97.0769Z" fill="#747474"/>
<path fill-rule="evenodd" clip-rule="evenodd" d="M46.8301 126.357C46.8301 134.536 40.2018 141.169 32.0285 141.169C23.8552 141.169 17.2269 134.536 17.2269 126.357C17.2269 118.178 23.8552 111.545 32.0285 111.545C40.2018 111.545 46.8301 118.178 46.8301 126.357Z" fill="#747474"/>
<path fill-rule="evenodd" clip-rule="evenodd" d="M42.6015 67.7968C42.6015 73.64 37.867 78.3778 32.0277 78.3778C26.1885 78.3778 21.454 73.64 21.454 67.7968C21.454 61.9536 26.1885 57.2158 32.0277 57.2158C37.867 57.2158 42.6015 61.9536 42.6015 67.7968Z" fill="#9D9D9D"/>
<path fill-rule="evenodd" clip-rule="evenodd" d="M148.189 126.357C148.189 134.536 141.561 141.169 133.388 141.169C125.215 141.169 118.586 134.536 118.586 126.357C118.586 118.178 125.215 111.545 133.388 111.545C141.561 111.545 148.189 118.178 148.189 126.357Z" fill="#606060"/>
<path fill-rule="evenodd" clip-rule="evenodd" d="M143.961 67.7968C143.961 73.64 139.226 78.3778 133.387 78.3778C127.548 78.3778 122.813 73.64 122.813 67.7968C122.813 61.9536 127.548 57.2158 133.387 57.2158C139.226 57.2158 143.961 61.9536 143.961 67.7968Z" fill="#747474"/>
<path fill-rule="evenodd" clip-rule="evenodd" d="M141.846 9.23734C141.846 13.9086 138.058 17.6988 133.39 17.6988C128.714 17.6988 124.926 13.9086 124.926 9.23734C124.926 4.56608 128.714 0.775879 133.39 0.775879C138.058 0.775879 141.846 4.56608 141.846 9.23734Z" fill="#BBBBBB"/>
<path fill-rule="evenodd" clip-rule="evenodd" d="M196.756 97.0769C196.756 104.092 191.074 109.769 184.072 109.769C177.062 109.769 171.38 104.092 171.38 97.0769C171.38 90.0618 177.062 84.3848 184.072 84.3848C191.074 84.3848 196.756 90.0618 196.756 97.0769Z" fill="#747474"/>
<path fill-rule="evenodd" clip-rule="evenodd" d="M93.2807 36.5459C93.2807 42.3892 88.5462 47.1269 82.7069 47.1269C76.8677 47.1269 72.1332 42.3892 72.1332 36.5459C72.1332 30.7027 76.8677 25.965 82.7069 25.965C88.5462 25.965 93.2807 30.7027 93.2807 36.5459Z" fill="#9D9D9D"/>
<path fill-rule="evenodd" clip-rule="evenodd" d="M194.641 36.5459C194.641 42.3892 189.906 47.1269 184.067 47.1269C178.228 47.1269 173.493 42.3892 173.493 36.5459C173.493 30.7027 178.228 25.965 184.067 25.965C189.906 25.965 194.641 30.7027 194.641 36.5459Z" fill="#9D9D9D"/>
<path fill-rule="evenodd" clip-rule="evenodd" d="M248.771 125.907C248.771 134.086 242.143 140.719 233.97 140.719C225.797 140.719 219.168 134.086 219.168 125.907C219.168 117.729 225.797 111.096 233.97 111.096C242.143 111.096 248.771 117.729 248.771 125.907Z" fill="#747474"/>
<path fill-rule="evenodd" clip-rule="evenodd" d="M244.542 69.1466C244.542 74.9899 239.807 79.7276 233.968 79.7276C228.129 79.7276 223.394 74.9899 223.394 69.1466C223.394 63.3034 228.129 58.5657 233.968 58.5657C239.807 58.5657 244.542 63.3034 244.542 69.1466Z" fill="#9D9D9D"/>
</svg>
