<svg width="579" height="471" viewBox="0 0 579 471" fill="none" xmlns="http://www.w3.org/2000/svg">
<rect width="579" height="471" fill="white"/>
<path fill-rule="evenodd" clip-rule="evenodd" d="M274.18 151.421C275.973 133.772 290.878 120 309 120L442.587 120C442.587 158.66 411.247 190 372.587 190H344V361C344 380.33 328.33 396 309 396C289.67 396 274 380.33 274 361V155C274 153.792 274.061 152.598 274.18 151.421ZM174.683 225.888C200.633 197.231 244.9 195.036 273.557 220.986L125.545 384.438C112.57 398.767 90.4362 399.864 76.1078 386.889C61.7795 373.914 60.6823 351.781 73.6571 337.452L174.683 225.888ZM178 161C178 183.091 160.091 201 138 201C115.908 201 97.9998 183.091 97.9998 161C97.9998 138.909 115.908 121 138 121C160.091 121 178 138.909 178 161ZM455 352C492.555 352 523 321.555 523 284C523 246.445 492.555 216 455 216C417.444 216 387 246.445 387 284C387 321.555 417.444 352 455 352ZM455 298.9C446.771 298.9 440.099 292.229 440.099 284C440.099 275.771 446.771 269.1 455 269.1C463.229 269.1 469.9 275.771 469.9 284C469.9 292.229 463.229 298.9 455 298.9Z" fill="#111D4A"/>
</svg>
